# xmcd
#
# Track frame offsets:
#	150
#	20653
#	38850
#	56704
#	76108
#	96996
#	123384
#	140956
#	165241
#	185425
#	211842
#	232392
#	255190
#	275278
#	299668
#
# Disc length: 4232 seconds
#
# Revision: 1
# Processed by: cddbd v1.5.1PL2 Copyright (c) Steve Scherf et al.
# Submitted via: EasyCDDAExtractor 9.1.1.2
#
DISCID=db10860f
DTITLE=Dixie Chicks - Taking the Long Way
DYEAR=2006
DGENRE=Country
TTITLE0=The Long Way Around
TTITLE1=Easy Silence
TTITLE2=Not Ready to Make Nice
TTITLE3=Everybody Knows
TTITLE4=Bitter End
TTITLE5=Lullaby
TTITLE6=Lubbock or Leave it
TTITLE7=Silent House
TTITLE8=Favorite Year
TTITLE9=Voice Inside My Head
TTITLE10=I Like It
TTITLE11=Baby Hold On
TTITLE12=So Hard
TTITLE13=I Hope
TTITLE14=Live Wire
EXTD=
EXTT0=
EXTT1=
EXTT2=
EXTT3=
EXTT4=
EXTT5=
EXTT6=
EXTT7=
EXTT8=
EXTT9=
EXTT10=
EXTT11=
EXTT12=
EXTT13=
EXTT14=
PLAYORDER=
